<?xml version="1.0" encoding="UTF-8" standalone="no"?>
<!DOCTYPE svg PUBLIC "-//W3C//DTD SVG 1.1//EN" "http://www.w3.org/Graphics/SVG/1.1/DTD/svg11.dtd">
<svg width="100%" height="100%" viewBox="0 0 41 51" version="1.1" xmlns="http://www.w3.org/2000/svg" xmlns:xlink="http://www.w3.org/1999/xlink" xml:space="preserve" xmlns:serif="http://www.serif.com/" style="fill-rule:evenodd;clip-rule:evenodd;stroke-linejoin:round;stroke-miterlimit:2;">
    <g transform="matrix(1,0,0,1,-1179.98,-579.14)">
        <path d="M1196.5,586.47L1193.86,586.47C1193.27,586.47 1192.79,585.993 1192.79,585.405L1192.79,580.205C1192.79,579.617 1193.27,579.14 1193.86,579.14L1206.16,579.14C1206.75,579.14 1207.22,579.617 1207.22,580.205L1207.22,585.405C1207.22,585.993 1206.75,586.47 1206.16,586.47L1203.51,586.47L1203.51,589.912C1207.01,590.531 1210.2,592.062 1212.83,594.249L1215.21,592.102C1215.64,591.708 1216.32,591.743 1216.71,592.18L1219.58,595.357C1219.97,595.794 1219.93,596.469 1219.5,596.862L1217.03,599.083C1218.94,602.149 1220.04,605.765 1220.04,609.637C1220.04,620.692 1211.06,629.668 1200.01,629.668C1188.95,629.668 1179.98,620.692 1179.98,609.637C1179.98,599.777 1187.12,591.571 1196.5,589.912L1196.5,586.47ZM1200.01,594.144C1208.56,594.144 1215.5,601.086 1215.5,609.637C1215.5,618.188 1208.56,625.13 1200.01,625.13C1191.46,625.13 1184.51,618.188 1184.51,609.637C1184.51,601.086 1191.46,594.144 1200.01,594.144Z" style="fill:rgb(229,140,76);"/>
    </g>
</svg>
