<?xml version="1.0" encoding="UTF-8" standalone="no"?>
<!DOCTYPE svg PUBLIC "-//W3C//DTD SVG 1.1//EN" "http://www.w3.org/Graphics/SVG/1.1/DTD/svg11.dtd">
<svg width="100%" height="100%" viewBox="0 0 71 18" version="1.1" xmlns="http://www.w3.org/2000/svg" xmlns:xlink="http://www.w3.org/1999/xlink" xml:space="preserve" xmlns:serif="http://www.serif.com/" style="fill-rule:evenodd;clip-rule:evenodd;stroke-linejoin:round;stroke-miterlimit:2;">
    <g transform="matrix(1,0,0,1,-1041.56,-734.84)">
        <g transform="matrix(0.0624502,0,0,0.0439749,1009.54,717.859)">
            <g transform="matrix(397.267,0,0,564.173,502.805,782.244)">
                <path d="M0.291,-0.511C0.294,-0.511 0.297,-0.51 0.3,-0.508C0.302,-0.505 0.303,-0.502 0.303,-0.499L0.303,-0.431C0.303,-0.428 0.302,-0.425 0.3,-0.423C0.297,-0.42 0.294,-0.419 0.291,-0.419L0.21,-0.419C0.207,-0.419 0.205,-0.417 0.205,-0.414L0.205,-0.012C0.205,-0.009 0.204,-0.006 0.202,-0.004C0.199,-0.001 0.196,0 0.193,0L0.102,0C0.099,0 0.096,-0.001 0.094,-0.004C0.091,-0.006 0.09,-0.009 0.09,-0.012L0.09,-0.414C0.09,-0.417 0.088,-0.419 0.085,-0.419L0.037,-0.419C0.034,-0.419 0.031,-0.42 0.029,-0.423C0.026,-0.425 0.025,-0.428 0.025,-0.431L0.025,-0.499C0.025,-0.502 0.026,-0.505 0.029,-0.508C0.031,-0.51 0.034,-0.511 0.037,-0.511L0.085,-0.511C0.088,-0.511 0.09,-0.513 0.09,-0.516L0.09,-0.538C0.09,-0.58 0.096,-0.613 0.108,-0.637C0.119,-0.66 0.138,-0.677 0.164,-0.688C0.189,-0.698 0.224,-0.703 0.267,-0.702L0.288,-0.702C0.291,-0.702 0.294,-0.701 0.297,-0.699C0.299,-0.696 0.3,-0.693 0.3,-0.69L0.3,-0.621C0.3,-0.618 0.299,-0.615 0.297,-0.613C0.294,-0.61 0.291,-0.609 0.288,-0.609L0.272,-0.609C0.247,-0.608 0.23,-0.602 0.22,-0.591C0.21,-0.579 0.205,-0.559 0.205,-0.531L0.205,-0.516C0.205,-0.513 0.207,-0.511 0.21,-0.511L0.291,-0.511Z" style="fill:white;fill-rule:nonzero;"/>
            </g>
            <g transform="matrix(397.267,0,0,564.173,621.191,782.244)">
                <path d="M0.238,-0.519C0.276,-0.519 0.31,-0.512 0.339,-0.498C0.368,-0.483 0.391,-0.463 0.408,-0.438C0.424,-0.413 0.432,-0.384 0.432,-0.351L0.432,-0.012C0.432,-0.009 0.431,-0.006 0.429,-0.004C0.426,-0.001 0.423,0 0.42,0L0.328,0C0.325,0 0.322,-0.001 0.32,-0.004C0.317,-0.006 0.316,-0.009 0.316,-0.012L0.316,-0.037C0.316,-0.039 0.315,-0.04 0.314,-0.041C0.313,-0.041 0.311,-0.04 0.31,-0.039C0.281,-0.008 0.24,0.008 0.187,0.008C0.143,0.008 0.106,-0.004 0.076,-0.028C0.045,-0.051 0.03,-0.09 0.03,-0.143C0.03,-0.199 0.048,-0.241 0.084,-0.268C0.119,-0.295 0.169,-0.309 0.232,-0.309L0.311,-0.309C0.314,-0.309 0.316,-0.311 0.316,-0.314L0.316,-0.339C0.316,-0.364 0.309,-0.383 0.296,-0.398C0.282,-0.412 0.263,-0.419 0.238,-0.419C0.219,-0.419 0.203,-0.415 0.191,-0.406C0.178,-0.397 0.17,-0.384 0.167,-0.369C0.166,-0.362 0.162,-0.358 0.154,-0.358L0.056,-0.364C0.047,-0.365 0.044,-0.369 0.045,-0.375C0.05,-0.418 0.07,-0.452 0.105,-0.479C0.14,-0.506 0.185,-0.519 0.238,-0.519ZM0.219,-0.086C0.245,-0.086 0.268,-0.094 0.287,-0.109C0.306,-0.124 0.316,-0.143 0.316,-0.168L0.316,-0.22C0.316,-0.223 0.314,-0.225 0.311,-0.225L0.243,-0.225C0.214,-0.225 0.191,-0.219 0.174,-0.206C0.157,-0.193 0.148,-0.175 0.148,-0.151C0.148,-0.13 0.155,-0.114 0.168,-0.103C0.181,-0.092 0.198,-0.086 0.219,-0.086Z" style="fill:white;fill-rule:nonzero;"/>
            </g>
            <g transform="matrix(397.267,0,0,564.173,798.769,782.244)">
                <path d="M0.246,0.008C0.192,0.008 0.148,-0.006 0.114,-0.034C0.079,-0.061 0.058,-0.099 0.051,-0.147C0.046,-0.174 0.043,-0.211 0.043,-0.257C0.043,-0.299 0.046,-0.335 0.051,-0.366C0.058,-0.413 0.079,-0.45 0.114,-0.478C0.149,-0.505 0.193,-0.519 0.246,-0.519C0.297,-0.519 0.341,-0.506 0.376,-0.48C0.411,-0.453 0.433,-0.419 0.44,-0.376C0.441,-0.373 0.441,-0.37 0.442,-0.366C0.443,-0.362 0.443,-0.357 0.443,-0.351L0.443,-0.349C0.443,-0.343 0.439,-0.339 0.432,-0.338L0.341,-0.329L0.339,-0.329C0.333,-0.329 0.329,-0.333 0.328,-0.34C0.328,-0.345 0.327,-0.35 0.326,-0.355C0.323,-0.373 0.314,-0.388 0.3,-0.401C0.285,-0.413 0.267,-0.419 0.245,-0.419C0.223,-0.419 0.205,-0.412 0.191,-0.399C0.176,-0.386 0.167,-0.368 0.164,-0.346C0.161,-0.321 0.159,-0.291 0.159,-0.256C0.159,-0.218 0.161,-0.187 0.165,-0.164C0.168,-0.142 0.177,-0.125 0.191,-0.112C0.205,-0.098 0.223,-0.092 0.245,-0.092C0.268,-0.092 0.286,-0.098 0.301,-0.112C0.315,-0.125 0.323,-0.14 0.326,-0.159L0.327,-0.169C0.328,-0.172 0.329,-0.175 0.332,-0.178C0.335,-0.18 0.338,-0.181 0.341,-0.18L0.431,-0.172C0.439,-0.171 0.443,-0.166 0.443,-0.159L0.441,-0.142C0.435,-0.097 0.414,-0.06 0.379,-0.033C0.344,-0.006 0.299,0.008 0.246,0.008Z" style="fill:white;fill-rule:nonzero;"/>
            </g>
            <g transform="matrix(397.267,0,0,564.173,975.156,782.244)">
                <path d="M0.253,-0.091C0.273,-0.092 0.29,-0.097 0.305,-0.107C0.319,-0.117 0.33,-0.13 0.337,-0.147C0.34,-0.154 0.345,-0.157 0.352,-0.155L0.426,-0.136C0.434,-0.134 0.437,-0.129 0.435,-0.121C0.423,-0.081 0.401,-0.049 0.369,-0.027C0.336,-0.003 0.296,0.008 0.247,0.008C0.196,0.008 0.155,-0.005 0.122,-0.031C0.089,-0.056 0.067,-0.091 0.058,-0.135C0.049,-0.17 0.044,-0.211 0.044,-0.26C0.044,-0.301 0.046,-0.333 0.049,-0.357C0.055,-0.406 0.075,-0.446 0.11,-0.475C0.145,-0.504 0.189,-0.519 0.244,-0.519C0.305,-0.519 0.351,-0.503 0.384,-0.471C0.417,-0.439 0.436,-0.394 0.441,-0.336C0.444,-0.298 0.446,-0.262 0.446,-0.227C0.446,-0.219 0.442,-0.215 0.434,-0.215L0.165,-0.215C0.162,-0.215 0.16,-0.213 0.16,-0.21C0.16,-0.193 0.161,-0.178 0.163,-0.165C0.166,-0.143 0.176,-0.125 0.193,-0.112C0.209,-0.098 0.229,-0.091 0.253,-0.091ZM0.243,-0.419C0.222,-0.419 0.204,-0.413 0.19,-0.4C0.176,-0.387 0.167,-0.37 0.164,-0.349C0.161,-0.33 0.16,-0.315 0.16,-0.303C0.16,-0.3 0.162,-0.298 0.165,-0.298L0.324,-0.298C0.327,-0.298 0.329,-0.3 0.329,-0.303C0.328,-0.323 0.326,-0.337 0.325,-0.346C0.322,-0.369 0.313,-0.387 0.299,-0.4C0.285,-0.413 0.266,-0.419 0.243,-0.419Z" style="fill:white;fill-rule:nonzero;"/>
            </g>
            <g transform="matrix(397.267,0,0,564.173,1155.52,782.244)">
                <path d="M0.248,0.008C0.194,0.008 0.15,-0.006 0.115,-0.034C0.08,-0.062 0.058,-0.1 0.051,-0.149C0.046,-0.181 0.043,-0.217 0.043,-0.256C0.043,-0.296 0.046,-0.332 0.051,-0.364C0.058,-0.411 0.08,-0.449 0.115,-0.477C0.15,-0.505 0.194,-0.519 0.249,-0.519C0.302,-0.519 0.345,-0.505 0.38,-0.477C0.415,-0.449 0.436,-0.412 0.443,-0.365C0.449,-0.333 0.452,-0.297 0.452,-0.257C0.452,-0.217 0.449,-0.181 0.443,-0.149C0.436,-0.1 0.415,-0.062 0.38,-0.034C0.345,-0.006 0.301,0.008 0.248,0.008ZM0.248,-0.092C0.269,-0.092 0.287,-0.099 0.302,-0.112C0.317,-0.125 0.326,-0.144 0.33,-0.167C0.333,-0.19 0.335,-0.219 0.335,-0.256C0.335,-0.293 0.333,-0.323 0.33,-0.344C0.327,-0.367 0.318,-0.386 0.303,-0.399C0.288,-0.412 0.269,-0.419 0.247,-0.419C0.225,-0.419 0.207,-0.412 0.192,-0.399C0.177,-0.386 0.168,-0.367 0.164,-0.344C0.161,-0.315 0.159,-0.286 0.159,-0.256C0.159,-0.227 0.161,-0.197 0.164,-0.167C0.168,-0.144 0.178,-0.125 0.193,-0.112C0.208,-0.099 0.226,-0.092 0.248,-0.092Z" style="fill:white;fill-rule:nonzero;"/>
            </g>
            <g transform="matrix(397.267,0,0,564.173,1340.24,782.244)">
                <path d="M0.32,-0.499C0.32,-0.502 0.321,-0.505 0.324,-0.508C0.326,-0.51 0.329,-0.511 0.332,-0.511L0.424,-0.511C0.427,-0.511 0.43,-0.51 0.433,-0.508C0.435,-0.505 0.436,-0.502 0.436,-0.499L0.436,-0.012C0.436,-0.009 0.435,-0.006 0.433,-0.004C0.43,-0.001 0.427,0 0.424,0L0.332,0C0.329,0 0.326,-0.001 0.324,-0.004C0.321,-0.006 0.32,-0.009 0.32,-0.012L0.32,-0.039C0.32,-0.041 0.319,-0.042 0.318,-0.043C0.317,-0.043 0.315,-0.042 0.314,-0.04C0.291,-0.009 0.256,0.007 0.207,0.007C0.162,0.007 0.124,-0.007 0.094,-0.034C0.064,-0.061 0.049,-0.1 0.049,-0.152L0.049,-0.499C0.049,-0.502 0.05,-0.505 0.053,-0.508C0.055,-0.51 0.058,-0.511 0.061,-0.511L0.153,-0.511C0.156,-0.511 0.159,-0.51 0.162,-0.508C0.164,-0.505 0.165,-0.502 0.165,-0.499L0.165,-0.181C0.165,-0.153 0.171,-0.131 0.185,-0.116C0.198,-0.1 0.216,-0.092 0.241,-0.092C0.266,-0.092 0.285,-0.1 0.299,-0.117C0.313,-0.133 0.32,-0.155 0.32,-0.183L0.32,-0.499Z" style="fill:white;fill-rule:nonzero;"/>
            </g>
            <g transform="matrix(397.267,0,0,564.173,1522.59,782.244)">
                <path d="M0.296,-0.435C0.296,-0.432 0.295,-0.429 0.293,-0.427C0.29,-0.424 0.287,-0.423 0.284,-0.423L0.203,-0.423C0.2,-0.423 0.198,-0.421 0.198,-0.418L0.198,-0.168C0.198,-0.143 0.203,-0.126 0.213,-0.116C0.222,-0.106 0.237,-0.101 0.258,-0.101L0.276,-0.101C0.279,-0.101 0.282,-0.1 0.285,-0.098C0.287,-0.095 0.288,-0.092 0.288,-0.089L0.288,-0.014C0.288,-0.007 0.284,-0.002 0.276,-0.001L0.234,-0.001C0.185,-0.001 0.148,-0.01 0.123,-0.027C0.098,-0.044 0.086,-0.077 0.086,-0.125L0.086,-0.418C0.086,-0.421 0.084,-0.423 0.081,-0.423L0.035,-0.423C0.032,-0.423 0.029,-0.424 0.027,-0.427C0.024,-0.429 0.023,-0.432 0.023,-0.435L0.023,-0.499C0.023,-0.502 0.024,-0.505 0.027,-0.508C0.029,-0.51 0.032,-0.511 0.035,-0.511L0.081,-0.511C0.084,-0.511 0.086,-0.513 0.086,-0.516L0.086,-0.63C0.086,-0.633 0.087,-0.636 0.09,-0.639C0.092,-0.641 0.095,-0.642 0.098,-0.642L0.186,-0.642C0.189,-0.642 0.192,-0.641 0.195,-0.639C0.197,-0.636 0.198,-0.633 0.198,-0.63L0.198,-0.516C0.198,-0.513 0.2,-0.511 0.203,-0.511L0.284,-0.511C0.287,-0.511 0.29,-0.51 0.293,-0.508C0.295,-0.505 0.296,-0.502 0.296,-0.499L0.296,-0.435Z" style="fill:white;fill-rule:nonzero;"/>
            </g>
        </g>
    </g>
</svg>
