<?xml version="1.0" encoding="UTF-8" standalone="no"?>
<!DOCTYPE svg PUBLIC "-//W3C//DTD SVG 1.1//EN" "http://www.w3.org/Graphics/SVG/1.1/DTD/svg11.dtd">
<svg width="100%" height="100%" viewBox="0 0 70 18" version="1.1" xmlns="http://www.w3.org/2000/svg" xmlns:xlink="http://www.w3.org/1999/xlink" xml:space="preserve" xmlns:serif="http://www.serif.com/" style="fill-rule:evenodd;clip-rule:evenodd;stroke-linejoin:round;stroke-miterlimit:2;">
    <g transform="matrix(1,0,0,1,-661.697,-106.555)">
        <g transform="matrix(1.11796,0,0,1.11796,-90.0556,-15.1986)">
            <g transform="matrix(0.061871,0,0,0.0344887,640.752,95.2724)">
                <g transform="matrix(297.488,0,0,533.677,502.805,782.244)">
                    <path d="M0.365,0.108L0.462,0.025L0.405,-0.039C0.445,-0.075 0.468,-0.13 0.468,-0.207L0.468,-0.511C0.468,-0.661 0.379,-0.725 0.249,-0.725C0.123,-0.725 0.031,-0.657 0.031,-0.51L0.031,-0.203C0.031,-0.056 0.116,0.011 0.249,0.011C0.259,0.011 0.268,0.011 0.278,0.01L0.365,0.108ZM0.188,-0.2L0.188,-0.511C0.188,-0.575 0.208,-0.601 0.249,-0.601C0.291,-0.601 0.311,-0.573 0.311,-0.511L0.311,-0.201C0.311,-0.181 0.309,-0.166 0.306,-0.153L0.284,-0.178L0.215,-0.117C0.196,-0.13 0.188,-0.156 0.188,-0.2Z" style="fill:white;fill-rule:nonzero;"/>
                </g>
                <g transform="matrix(297.488,0,0,533.677,655.714,782.244)">
                    <path d="M0.298,-0.715L0.298,-0.195C0.298,-0.135 0.282,-0.114 0.244,-0.114C0.203,-0.114 0.189,-0.135 0.189,-0.194L0.189,-0.715L0.035,-0.715L0.035,-0.191C0.035,-0.052 0.11,0.011 0.243,0.011C0.375,0.011 0.453,-0.051 0.453,-0.19L0.453,-0.715L0.298,-0.715Z" style="fill:white;fill-rule:nonzero;"/>
                </g>
                <g transform="matrix(297.488,0,0,533.677,805.053,782.244)">
                    <rect x="0.04" y="-0.715" width="0.155" height="0.715" style="fill:white;fill-rule:nonzero;"/>
                </g>
                <g transform="matrix(297.488,0,0,533.677,879.127,782.244)">
                    <path d="M0.007,0L0.382,0L0.382,-0.12L0.197,-0.12L0.392,-0.698L0.392,-0.715L0.032,-0.715L0.032,-0.596L0.201,-0.596L0.007,-0.018L0.007,0Z" style="fill:white;fill-rule:nonzero;"/>
                </g>
                <g transform="matrix(297.488,0,0,533.677,1120.69,782.244)">
                    <path d="M0.037,0L0.352,0L0.352,-0.123L0.191,-0.123L0.191,-0.715L0.037,-0.715L0.037,0Z" style="fill:white;fill-rule:nonzero;"/>
                </g>
                <g transform="matrix(297.488,0,0,533.677,1231.65,782.244)">
                    <path d="M0.249,0.011C0.382,0.011 0.468,-0.058 0.468,-0.207L0.468,-0.511C0.468,-0.661 0.379,-0.725 0.249,-0.725C0.123,-0.725 0.031,-0.657 0.031,-0.51L0.031,-0.203C0.031,-0.056 0.116,0.011 0.249,0.011ZM0.249,-0.113C0.207,-0.113 0.188,-0.139 0.188,-0.204L0.188,-0.511C0.188,-0.575 0.208,-0.601 0.249,-0.601C0.291,-0.601 0.311,-0.573 0.311,-0.511L0.311,-0.205C0.311,-0.14 0.291,-0.113 0.249,-0.113Z" style="fill:white;fill-rule:nonzero;"/>
                </g>
                <g transform="matrix(297.488,0,0,533.677,1384.56,782.244)">
                    <path d="M0.298,-0.715L0.298,-0.195C0.298,-0.135 0.282,-0.114 0.244,-0.114C0.203,-0.114 0.189,-0.135 0.189,-0.194L0.189,-0.715L0.035,-0.715L0.035,-0.191C0.035,-0.052 0.11,0.011 0.243,0.011C0.375,0.011 0.453,-0.051 0.453,-0.19L0.453,-0.715L0.298,-0.715Z" style="fill:white;fill-rule:nonzero;"/>
                </g>
            </g>
            <g transform="matrix(0.24387,-0.24387,0.24387,0.24387,492.624,271.24)">
                <path d="M762.129,110.977L751.283,113.099L749.161,123.945L760.008,121.824L762.129,110.977Z" style="fill:white;"/>
            </g>
        </g>
    </g>
</svg>
