<?xml version="1.0" encoding="UTF-8" standalone="no"?>
<!DOCTYPE svg PUBLIC "-//W3C//DTD SVG 1.1//EN" "http://www.w3.org/Graphics/SVG/1.1/DTD/svg11.dtd">
<svg width="100%" height="100%" viewBox="0 0 288 74" version="1.1" xmlns="http://www.w3.org/2000/svg" xmlns:xlink="http://www.w3.org/1999/xlink" xml:space="preserve" xmlns:serif="http://www.serif.com/" style="fill-rule:evenodd;clip-rule:evenodd;stroke-linejoin:round;stroke-miterlimit:2;">
    <g transform="matrix(1,0,0,1,-708.786,-172.563)">
        <g transform="matrix(1,0,0,1,193.429,-214.76)">
            <path d="M635.341,437.77C634.727,438 633.884,438 633.347,438C631.124,438 630.511,436.926 630.511,435.623C630.511,433.936 633.807,420.443 634.191,417.913C634.267,417.3 634.344,416.763 634.344,416.15C634.344,410.936 629.744,406.49 625.527,406.49C622.154,406.49 618.627,408.33 615.484,410.63L616.404,406.49L605.364,406.49L597.237,444.823L608.277,444.823L614.794,413.85C616.404,412.776 617.784,412.24 619.624,412.24C621.694,412.24 623.151,414.003 623.151,416.763C623.151,417.376 623.074,418.066 622.921,418.756L620.007,432.556C619.701,434.013 619.547,435.24 619.547,436.466C619.547,442.216 622.384,444.823 627.367,444.823C629.974,444.823 633.194,444.363 635.341,437.77Z" style="fill:rgb(47,47,47);"/>
            <text x="516.507px" y="444.823px" style="font-family:'Lobster1.3', 'Lobster 1.3';font-size:76.667px;fill:rgb(47,47,47);">wo</text>
            <path d="M730.254,432.71C730.254,431.79 730.331,430.64 730.484,429.413C737.767,428.493 747.811,423.126 747.811,413.773C747.811,408.406 744.284,405.8 737.997,405.8C724.044,405.8 719.904,422.896 719.904,432.633C719.904,439.226 723.891,444.823 731.251,444.823C737.461,444.823 741.447,442.14 744.591,438.153C745.817,443.06 750.034,444.823 757.394,444.823C764.524,444.823 768.894,441.91 770.887,437.693C773.954,435.086 777.021,432.403 779.167,430.716L777.174,428.11C776.254,429.183 774.337,431.176 772.191,433.093C772.267,432.556 772.267,432.02 772.267,431.483C772.267,422.513 767.054,418.68 767.054,406.03L767.054,404.956L755.937,407.256C754.634,413.083 752.871,419.906 750.111,424.89C747.274,425.12 744.591,428.263 744.284,433.706C742.061,437.233 739.454,439.303 736.541,439.303C733.551,439.303 730.254,437.77 730.254,432.71ZM756.014,429.566C756.014,427.266 755.324,425.886 753.484,425.273C755.171,421.44 756.244,416.533 757.471,412.776C757.624,422.36 761.074,426.423 761.074,431.176C761.074,437.08 757.317,440.3 754.711,440.3C750.647,440.3 748.194,438.306 748.194,433.783C749.114,434.243 750.034,434.473 750.954,434.473C753.637,434.473 756.014,432.48 756.014,429.566ZM743.211,414.156C743.134,419.6 738.151,425.656 731.097,425.733C732.707,418.526 736.234,409.863 740.527,409.863C742.827,409.863 743.211,412.546 743.211,414.156Z" style="fill:rgb(0,159,232);"/>
            <path d="M786.144,407.41C784.841,413.236 783.307,419.983 780.701,424.966C777.634,425.196 774.874,428.723 774.874,434.78C774.874,442.293 779.167,444.823 787.984,444.823C798.334,444.823 802.857,438.613 802.857,431.483C802.857,422.513 797.261,418.833 797.261,406.183L797.261,405.11L786.144,407.41ZM786.604,429.566C786.604,427.266 785.914,425.886 784.074,425.273C785.761,421.44 786.834,416.533 788.061,412.776C788.214,422.36 791.664,426.423 791.664,431.176C791.664,437.08 787.907,440.3 785.301,440.3C781.237,440.3 778.784,438.306 778.784,433.783C779.704,434.243 780.624,434.473 781.544,434.473C784.227,434.473 786.527,432.48 786.604,429.566Z" style="fill:rgb(0,159,232);"/>
            <text x="637.104px" y="444.823px" style="font-family:'Lobster1.3', 'Lobster 1.3';font-size:76.667px;fill:rgb(0,159,232);">Gu</text>
        </g>
    </g>
</svg>
