<?xml version="1.0" encoding="UTF-8" standalone="no"?>
<!DOCTYPE svg PUBLIC "-//W3C//DTD SVG 1.1//EN" "http://www.w3.org/Graphics/SVG/1.1/DTD/svg11.dtd">
<svg width="100%" height="100%" viewBox="0 0 18 25" version="1.1" xmlns="http://www.w3.org/2000/svg" xmlns:xlink="http://www.w3.org/1999/xlink" xml:space="preserve" xmlns:serif="http://www.serif.com/" style="fill-rule:evenodd;clip-rule:evenodd;stroke-linejoin:round;stroke-miterlimit:2;">
    <g transform="matrix(1,0,0,1,-1921.83,-376.222)">
        <g transform="matrix(3.92441e-17,0.640906,-0.471577,2.88758e-17,2109.56,-807.148)">
            <path d="M1862.98,364.943C1863.53,363.842 1864.45,363.182 1865.43,363.182C1866.41,363.182 1867.33,363.842 1867.88,364.943C1871.31,371.804 1877.55,384.283 1881.32,391.821C1881.93,393.053 1882,394.646 1881.48,395.962C1880.97,397.279 1879.96,398.102 1878.87,398.102C1871.66,398.102 1859.2,398.102 1851.99,398.102C1850.89,398.102 1849.89,397.279 1849.38,395.962C1848.86,394.646 1848.93,393.053 1849.54,391.821C1853.31,384.283 1859.55,371.804 1862.98,364.943Z" style="fill:rgb(249,249,249);"/>
        </g>
    </g>
</svg>
