<?xml version="1.0" encoding="UTF-8" standalone="no"?>
<!DOCTYPE svg PUBLIC "-//W3C//DTD SVG 1.1//EN" "http://www.w3.org/Graphics/SVG/1.1/DTD/svg11.dtd">
<svg width="100%" height="100%" viewBox="0 0 19 23" version="1.1" xmlns="http://www.w3.org/2000/svg" xmlns:xlink="http://www.w3.org/1999/xlink" xml:space="preserve" xmlns:serif="http://www.serif.com/" style="fill-rule:evenodd;clip-rule:evenodd;stroke-linejoin:round;stroke-miterlimit:2;">
    <g transform="matrix(1,0,0,1,-1981.96,-327.988)">
        <g transform="matrix(16.3114,-16.3114,17.1484,17.1484,1982.89,350.502)">
            <path d="M0.826,-0.478C0.754,-0.478 0.746,-0.326 0.674,-0.326C0.592,-0.326 0.5,-0.5 0.5,-0.5C0.5,-0.5 0.326,-0.408 0.326,-0.326C0.326,-0.29 0.364,-0.27 0.402,-0.25C0.44,-0.23 0.478,-0.21 0.478,-0.174C0.478,-0.102 0.398,-0.022 0.326,-0.022C0.29,-0.022 0.27,-0.06 0.25,-0.098C0.23,-0.136 0.21,-0.174 0.174,-0.174C0.092,-0.174 0,0 0,0L0.5,0.5C0.5,0.5 0.674,0.408 0.674,0.326C0.674,0.29 0.636,0.27 0.598,0.25C0.56,0.23 0.522,0.21 0.522,0.174C0.522,0.102 0.602,0.022 0.674,0.022C0.71,0.022 0.73,0.06 0.75,0.098C0.77,0.136 0.79,0.174 0.826,0.174C0.908,0.174 1,0 1,0C1,0 0.826,-0.092 0.826,-0.174C0.826,-0.246 0.978,-0.254 0.978,-0.326C0.978,-0.362 0.958,-0.4 0.929,-0.429C0.9,-0.458 0.862,-0.478 0.826,-0.478Z" style="fill:rgb(249,249,249);fill-rule:nonzero;"/>
        </g>
    </g>
</svg>
