<?xml version="1.0" encoding="UTF-8" standalone="no"?>
<!DOCTYPE svg PUBLIC "-//W3C//DTD SVG 1.1//EN" "http://www.w3.org/Graphics/SVG/1.1/DTD/svg11.dtd">
<svg width="100%" height="100%" viewBox="0 0 16 23" version="1.1" xmlns="http://www.w3.org/2000/svg" xmlns:xlink="http://www.w3.org/1999/xlink" xml:space="preserve" xmlns:serif="http://www.serif.com/" style="fill-rule:evenodd;clip-rule:evenodd;stroke-linejoin:round;stroke-miterlimit:2;">
    <g transform="matrix(1,0,0,1,-1983.14,-427.965)">
        <g transform="matrix(0.217883,0,0,0.217883,1967.61,414.756)">
            <g transform="matrix(1,0,0,1,119.207,145.885)">
                <path d="M0,-6.978L-25.884,-6.978C-27.809,-6.978 -29.372,-5.416 -29.372,-3.489C-29.372,-1.562 -27.809,0 -25.884,0L0,0C1.925,0 3.49,-1.562 3.49,-3.489C3.49,-5.416 1.925,-6.978 0,-6.978" style="fill:rgb(249,249,249);fill-rule:nonzero;"/>
            </g>
            <g transform="matrix(1,0,0,1,99.4806,156.889)">
                <path d="M0,2.627L0,4.528C0,6.674 1.737,8.413 3.884,8.413L9.684,8.413C11.827,8.413 13.568,6.674 13.568,4.528L13.568,2.627C17.964,2.315 21.444,-1.312 21.444,-5.786L-7.879,-5.786C-7.879,-1.312 -4.396,2.315 0,2.627" style="fill:rgb(249,249,249);fill-rule:nonzero;"/>
            </g>
            <g transform="matrix(1,0,0,1,106.323,121.788)">
                <path d="M0,-49.032C-12.415,-49.032 -22.511,-38.935 -22.511,-26.524C-22.511,-24.597 -24.071,-23.034 -26.001,-23.034C-27.929,-23.034 -29.49,-24.597 -29.49,-26.524C-29.49,-42.782 -16.262,-56.01 0,-56.01C1.924,-56.01 3.489,-54.449 3.489,-52.522C3.489,-50.595 1.924,-49.032 0,-49.032M-0.058,-61.165C-19.372,-61.165 -35.03,-45.509 -35.03,-26.195C-35.03,-18.045 -32.227,-10.564 -27.544,-4.625C-23.403,0.625 -19.478,6.363 -16.095,12.133L15.973,12.133C19.391,6.308 23.245,0.677 27.427,-4.628C32.105,-10.566 34.91,-18.047 34.91,-26.195C34.91,-45.509 19.252,-61.165 -0.058,-61.165" style="fill:rgb(249,249,249);fill-rule:nonzero;"/>
            </g>
        </g>
    </g>
</svg>
